<?xml version="1.0" standalone="no"?>
<!DOCTYPE svg PUBLIC "-//W3C//DTD SVG 20010904//EN"
 "http://www.w3.org/TR/2001/REC-SVG-20010904/DTD/svg10.dtd">
<svg version="1.0" xmlns="http://www.w3.org/2000/svg"
 width="700.000000pt" height="700.000000pt" viewBox="0 0 700.000000 700.000000"
 preserveAspectRatio="xMidYMid meet">
<metadata>
Created by potrace 1.11, written by Peter Selinger 2001-2013
</metadata>
<g transform="translate(0.000000,700.000000) scale(0.100000,-0.100000)"
fill="#000000" stroke="none">
<path d="M4500 6279 c-19 -3 -51 -10 -70 -13 -159 -32 -385 -145 -542 -273
-201 -164 -388 -478 -424 -713 -3 -19 -8 -43 -10 -53 -7 -24 -7 -214 0 -225 9
-15 167 -4 251 18 44 12 85 22 90 24 26 5 174 82 219 114 195 137 356 319 458
518 57 112 95 226 114 349 8 47 12 234 6 252 -4 12 -36 13 -92 2z"/>
<path d="M4251 4964 c-110 -22 -264 -65 -306 -84 -41 -20 -365 -128 -409 -137
-79 -16 -148 1 -495 121 -242 84 -354 109 -491 109 -222 0 -446 -60 -642 -173
-206 -117 -343 -246 -472 -440 -111 -166 -169 -292 -219 -475 -28 -103 -34
-131 -57 -285 -15 -104 -5 -547 15 -636 2 -11 7 -45 11 -75 3 -30 8 -57 10
-60 2 -4 6 -24 10 -45 18 -119 107 -416 176 -589 55 -138 166 -366 229 -472
185 -311 445 -626 624 -759 219 -162 407 -178 725 -64 238 85 278 99 301 104
13 3 58 11 99 19 76 15 322 17 385 3 81 -19 155 -39 200 -55 28 -10 93 -35
147 -54 214 -79 377 -103 513 -74 211 45 391 186 621 487 131 172 152 204 305
460 25 44 118 244 151 330 52 131 59 153 51 160 -4 4 -35 22 -68 40 -65 35
-191 118 -232 153 -109 94 -220 220 -276 310 -74 121 -135 293 -157 445 -12
80 -9 336 4 397 34 156 63 241 114 335 96 176 241 328 432 454 l50 33 -57 69
c-111 135 -251 248 -398 322 -106 53 -280 109 -395 127 -19 3 -60 9 -90 14
-106 17 -287 10 -409 -15z"/>
</g>
</svg>
